<svg width="27" height="32" viewBox="0 0 27 32" fill="none" xmlns="http://www.w3.org/2000/svg">
<path d="M17.9717 5.10083C18.9546 3.90845 19.6475 2.28101 19.6475 0.637451C19.6475 0.411865 19.6313 0.186279 19.5991 0.0090332C17.9878 0.0734863 16.0542 1.07251 14.9102 2.42603C13.9917 3.45728 13.1538 5.10083 13.1538 6.74438C13.1538 7.0022 13.2021 7.2439 13.2183 7.32446C13.3149 7.34058 13.4761 7.3728 13.6533 7.3728C15.0874 7.3728 16.8921 6.40601 17.9717 5.10083ZM19.0996 7.71118C16.6987 7.71118 14.7329 9.17749 13.4761 9.17749C12.1387 9.17749 10.3984 7.80786 8.30371 7.80786C4.32373 7.80786 0.29541 11.095 0.29541 17.2825C0.29541 21.1497 1.77783 25.2263 3.63086 27.8528C5.20996 30.0764 6.5957 31.8972 8.59375 31.8972C10.5596 31.8972 11.4297 30.592 13.8789 30.592C16.3604 30.592 16.9243 31.865 19.0996 31.865C21.2588 31.865 22.6929 29.8831 24.0625 27.9333C25.5771 25.6936 26.2217 23.5183 26.2378 23.4055C26.1089 23.3733 21.9839 21.6814 21.9839 16.9602C21.9839 12.8674 25.2227 11.0305 25.416 10.8855C23.2729 7.80786 20.002 7.71118 19.0996 7.71118Z" fill="#0F0F10"/>
</svg>
